HIERARCHY
ROOT root
{
	OFFSET 0.000000 0.000000 0.000000
	CHANNELS 6 Xposition Yposition Zposition Zrotation Yrotation Xrotation
	JOINT lhip
	{
		OFFSET 0.058581 -0.082280 -0.017664
		CHANNELS 3 Zrotation Yrotation Xrotation
		JOINT lknee
		{
			OFFSET 0.043451 -0.386469 0.008037
			CHANNELS 3 Zrotation Yrotation Xrotation
			JOINT lankle
			{
				OFFSET -0.014790 -0.426874 -0.037428
				CHANNELS 3 Zrotation Yrotation Xrotation
				JOINT ltoe
				{
					OFFSET 0.041054 -0.060286 0.122042
					CHANNELS 3 Zrotation Yrotation Xrotation
					End Site
					{
						OFFSET 0.000000 0.000000 0.000000
					}
				}
			}
		}
	}
	JOINT rhip
	{
		OFFSET -0.060310 -0.090513 -0.013543
		CHANNELS 3 Zrotation Yrotation Xrotation
		JOINT rknee
		{
			OFFSET -0.043257 -0.383688 -0.004843
			CHANNELS 3 Zrotation Yrotation Xrotation
			JOINT rankle
			{
				OFFSET 0.019056 -0.420046 -0.034562
				CHANNELS 3 Zrotation Yrotation Xrotation
				JOINT rtoe
				{
					OFFSET -0.034840 -0.062106 0.130323
					CHANNELS 3 Zrotation Yrotation Xrotation
					End Site
					{
						OFFSET 0.000000 0.000000 0.000000
					}
				}
			}
		}
	}
	JOINT lowerback
	{
		OFFSET 0.004439 0.124404 -0.038385
		CHANNELS 3 Zrotation Yrotation Xrotation
		JOINT upperback
		{
			OFFSET 0.004488 0.137956 0.026820
			CHANNELS 3 Zrotation Yrotation Xrotation
			JOINT chest
			{
				OFFSET -0.002265 0.056032 0.002855
				CHANNELS 3 Zrotation Yrotation Xrotation
				JOINT lowerneck
				{
					OFFSET -0.013390 0.211636 -0.033468
					CHANNELS 3 Zrotation Yrotation Xrotation
					JOINT upperneck
					{
						OFFSET 0.010113 0.088937 0.050410
						CHANNELS 3 Zrotation Yrotation Xrotation
						End Site
						{
							OFFSET 0.000000 0.000000 0.000000
						}
					}
				}
				JOINT lclavicle
				{
					OFFSET 0.071702 0.114000 -0.018898
					CHANNELS 3 Zrotation Yrotation Xrotation
					JOINT lshoulder
					{
						OFFSET 0.122921 0.045205 -0.019046
						CHANNELS 3 Zrotation Yrotation Xrotation
						JOINT lelbow
						{
							OFFSET 0.255332 -0.015649 -0.022946
							CHANNELS 3 Zrotation Yrotation Xrotation
							JOINT lwrist
							{
								OFFSET 0.265709 0.012698 -0.007375
								CHANNELS 3 Zrotation Yrotation Xrotation
								End Site
								{
									OFFSET 0.000000 0.000000 0.000000
								}
							}
						}
					}
				}
				JOINT rclavicle
				{
					OFFSET -0.082954 0.112472 -0.023707
					CHANNELS 3 Zrotation Yrotation Xrotation
					JOINT rshoulder
					{
						OFFSET -0.113228 0.046853 -0.008472
						CHANNELS 3 Zrotation Yrotation Xrotation
						JOINT relbow
						{
							OFFSET -0.260127 -0.014369 -0.031269
							CHANNELS 3 Zrotation Yrotation Xrotation
							JOINT rwrist
							{
								OFFSET -0.269108 0.006794 -0.006027
								CHANNELS 3 Zrotation Yrotation Xrotation
								End Site
								{
									OFFSET 0.000000 0.000000 0.000000
								}
							}
						}
					}
				}
			}
		}
	}
}
MOTION
Frames: 8
Frame Time: 0.033333
-1.663448 0.219445 0.807778 56.089110 3.984167 83.464264 26.225742 27.403653 -38.880067 -9.706624 19.454826 70.099295 0.640120 1.416105 -28.140559 0.000000 -0.000000 0.000000 -27.767542 -9.081719 19.146112 -0.371132 7.142726 32.447813 6.945232 -7.820376 -44.114420 0.000000 -0.000000 0.000000 -0.994657 5.946956 12.164311 3.336567 -6.447021 3.007270 0.190455 -0.113475 -5.445855 -3.035189 -5.513673 2.023928 5.964203 -0.312964 14.969074 -20.100077 -11.083606 -2.675863 -30.823203 -13.915563 0.637069 -9.528398 -41.782056 30.409315 11.031777 -4.528472 20.934739 17.634902 0.536586 5.237398 38.617182 -23.094554 15.741920 132.446548 66.025386 137.751606 1.611995 12.673718 -57.966391 
-1.663761 0.219373 0.807922 56.115178 3.994892 83.505654 26.421991 27.199138 -38.786610 -9.548145 19.734636 70.036921 0.703557 1.197338 -28.113758 0.000000 -0.000000 0.000000 -27.749340 -9.209114 19.068015 -0.647299 6.875315 32.489836 6.647391 -7.536010 -43.999143 0.000000 -0.000000 0.000000 -0.971503 5.960724 12.173376 3.292100 -6.512900 2.980079 0.261455 -0.055384 -5.488576 -3.022734 -5.704571 1.972343 5.985819 -0.328980 14.733647 -20.168403 -11.398787 -2.483774 -30.634890 -13.694535 0.368581 -9.574056 -41.947570 29.859096 10.904959 -4.491171 21.553414 17.603811 0.591939 5.202025 38.524260 -23.289131 15.448597 132.080952 65.780184 137.229556 1.909753 12.795015 -57.804411 
-1.664043 0.219209 0.808103 56.107886 3.978563 83.544016 26.567947 27.085583 -38.683915 -9.489792 19.963789 69.936653 0.756604 1.063169 -28.045543 0.000000 -0.000000 0.000000 -27.754088 -9.254345 19.015596 -0.810609 6.713018 32.473422 6.457969 -7.377415 -43.924768 0.000000 -0.000000 0.000000 -0.997993 5.968988 12.162223 3.263640 -6.545661 2.901433 0.305091 -0.009400 -5.455516 -2.956883 -5.865756 1.896432 6.001976 -0.353751 14.639196 -20.141770 -11.603522 -2.405927 -30.592301 -13.608408 0.231957 -9.538504 -41.867088 29.541409 10.864710 -4.493240 21.968038 17.536224 0.623062 5.157122 38.460307 -23.366361 15.313301 131.644296 65.612570 136.712181 2.026622 12.850511 -57.740455 
-1.664121 0.219087 0.808226 56.160509 3.963149 83.550941 26.540113 26.980043 -38.695089 -9.453709 20.008282 69.903130 0.778815 1.114165 -28.013814 0.000000 -0.000000 0.000000 -27.758495 -9.233082 19.056574 -0.809028 6.664024 32.441030 6.427433 -7.316121 -43.921368 0.000000 -0.000000 0.000000 -0.992480 5.969988 12.132515 3.271020 -6.597781 2.945426 0.293558 -0.014894 -5.541942 -2.942781 -5.889426 1.904533 5.947919 -0.384074 14.873632 -20.195404 -11.712325 -2.336885 -30.567550 -13.612166 0.187315 -9.355393 -41.701057 29.256686 10.782954 -4.529226 22.136690 17.575278 0.624739 5.226439 38.378175 -23.405465 15.270252 131.726740 65.593091 136.805674 2.069668 12.920195 -57.724780 
-1.664188 0.218985 0.808330 56.150910 3.959827 83.540217 26.540586 26.950538 -38.678066 -9.414567 20.009627 69.892754 0.766443 1.114496 -28.010055 0.000000 -0.000000 0.000000 -27.756652 -9.234828 19.041651 -0.820488 6.642027 32.477045 6.438971 -7.300481 -43.901888 0.000000 -0.000000 0.000000 -0.984982 5.981308 12.128423 3.267857 -6.592332 3.000257 0.284986 -0.022157 -5.574496 -2.920811 -5.927593 1.867586 5.933146 -0.411116 14.936693 -20.221310 -11.709598 -2.332888 -30.572361 -13.648040 0.162183 -9.278399 -41.686905 29.177394 10.735240 -4.540023 22.155492 17.587012 0.610329 5.222754 38.362798 -23.408256 15.247259 131.802265 65.585430 136.897790 2.124202 12.979124 -57.729143 
-1.664347 0.218827 0.808585 56.076499 3.945924 83.484356 26.571022 26.946445 -38.578430 -9.369490 19.998383 69.861855 0.727090 1.120465 -28.004376 0.000000 -0.000000 0.000000 -27.774904 -9.249075 19.023416 -0.866532 6.640337 32.510961 6.432420 -7.288683 -43.879407 0.000000 -0.000000 0.000000 -0.990075 6.007681 12.168975 3.247268 -6.570198 3.069404 0.283935 -0.013113 -5.598373 -2.884430 -5.933703 1.831877 5.936616 -0.420515 14.935216 -20.244361 -11.729358 -2.328290 -30.544391 -13.641673 0.117810 -9.229543 -41.710814 29.143314 10.680255 -4.525841 22.162433 17.600055 0.649654 5.242450 38.390317 -23.388562 15.194602 131.865581 65.572883 136.962821 2.175282 13.015599 -57.755662 
-1.664412 0.218644 0.808867 55.998840 3.895438 83.423261 26.567053 26.926215 -38.454960 -9.340562 19.986040 69.819369 0.712772 1.157676 -28.003390 0.000000 -0.000000 0.000000 -27.834737 -9.216632 19.070049 -0.876958 6.694389 32.442076 6.438278 -7.263062 -43.861820 0.000000 -0.000000 0.000000 -1.030480 6.042865 12.185673 3.224278 -6.577603 3.182596 0.274767 0.008910 -5.658582 -2.866382 -5.922807 1.818047 5.947243 -0.447566 14.895010 -20.276534 -11.773719 -2.322347 -30.459267 -13.600169 0.111712 -9.250447 -41.681384 29.098912 10.710063 -4.558574 22.199597 17.643312 0.698197 5.276599 38.366196 -23.397511 15.200964 132.012991 65.544822 137.115252 2.186140 12.979746 -57.664312 
-1.664545 0.218556 0.809082 55.972520 3.865370 83.435222 26.536268 26.878127 -38.434562 -9.301987 19.985315 69.770095 0.710262 1.186364 -28.001687 0.000000 -0.000000 0.000000 -27.862470 -9.192563 19.055811 -0.850669 6.698660 32.406604 6.464774 -7.218784 -43.853453 0.000000 -0.000000 0.000000 -1.046666 6.056784 12.173189 3.203815 -6.584724 3.245165 0.247159 0.009842 -5.707981 -2.835421 -5.935134 1.693837 5.954470 -0.518871 14.892676 -20.294595 -11.755986 -2.355168 -30.419308 -13.615312 0.149320 -9.220335 -41.650253 29.062546 10.684549 -4.554517 22.267149 17.689359 0.672430 5.248054 38.276567 -23.394423 15.258445 132.042012 65.499085 137.175932 2.235804 12.987138 -57.562852 
